<svg xmlns="http://www.w3.org/2000/svg" width="151.181" height="52.913" viewBox="0 0 113.386 39.685"><clipPath id="a"><path transform="matrix(1 0 0 -1 0 39.685)" d="M0 39.685h113.386V0H0z"/></clipPath><g clip-path="url(#a)"><path d="m23.03 22.258 2.864-3.939h5.279c.496 0 .927.015 1.294.045a18.841 18.841 0 0 1-.745-1.042 57.04 57.04 0 0 0-.813-1.179l-2.748-4.054-15.033 20.912H7.517L25.184 8.402a5.31 5.31 0 0 1 1.214-1.191c.488-.351 1.107-.527 1.855-.527.717 0 1.317.165 1.798.493.48.328.889.736 1.225 1.225l9.573 13.856zM56.744 13.051c1.878 0 3.305.348 4.283 1.042.977.695 1.466 1.745 1.466 3.149 0 .779-.123 1.482-.367 2.108a3.733 3.733 0 0 1-1.168 1.58c-.535.428-1.218.756-2.05.984-.832.23-1.83.344-2.99.344H41.652l3.046-3.939h11.589c.564 0 .977-.088 1.237-.263.259-.176.389-.462.389-.859 0-.397-.13-.679-.39-.848-.26-.168-.672-.252-1.236-.252h-8.337c-.993 0-1.847-.107-2.565-.32-.718-.214-1.313-.512-1.786-.894a3.507 3.507 0 0 1-1.054-1.385A4.573 4.573 0 0 1 42.2 11.7c0-.717.126-1.371.377-1.959a3.796 3.796 0 0 1 1.168-1.5c.527-.412 1.206-.732 2.039-.961.832-.229 1.828-.344 2.989-.344H62.08l-3.046 3.985H48.408c-.55 0-.96.077-1.226.23-.267.152-.401.427-.401.824 0 .397.134.676.4.836.268.16.677.24 1.227.24z" fill="#085f9b"/><path d="M66.386 18.319h10.489c.519 0 .893-.092 1.122-.274.229-.184.344-.452.344-.803 0-.335-.115-.591-.344-.768-.23-.174-.603-.262-1.122-.262H67.69l2.45-3.275h6.803c.35 0 .66-.072.927-.218.267-.144.4-.416.4-.812 0-.383-.136-.643-.411-.78a2.012 2.012 0 0 0-.916-.206H64.118l3.046-3.985h9.574c.916 0 1.744.088 2.485.264.74.176 1.374.442 1.9.801a3.74 3.74 0 0 1 1.215 1.329c.282.527.423 1.14.423 1.842 0 .46-.061.864-.183 1.214a3.656 3.656 0 0 1-.47.929 2.736 2.736 0 0 1-.664.664 3.19 3.19 0 0 1-.767.4c.672.2 1.24.588 1.706 1.168.466.581.699 1.33.699 2.245 0 .64-.1 1.233-.298 1.774a3.307 3.307 0 0 1-1.008 1.41c-.473.396-1.111.71-1.912.939-.802.229-1.806.343-3.012.343h-13.49zM96.96 14.38c0-.459.007-.84.023-1.146.015-.305.038-.587.07-.847-.368.366-.926.855-1.673 1.466l-1.695 1.351c-.428.352-.806.653-1.134.904-.328.252-.637.47-.927.653.32-.03.694-.053 1.122-.069.427-.014.923-.022 1.488-.022h2.726zm-9.985 6.046c-.352 0-.669-.058-.95-.172a2.219 2.219 0 0 1-.722-.458 1.989 1.989 0 0 1-.458-.653 1.897 1.897 0 0 1-.16-.779c0-.32.075-.64.228-.962.152-.32.404-.626.756-.916L96.731 7.51c.381-.306.767-.52 1.157-.642s.721-.183.996-.183c.335 0 .664.053.985.161.32.106.6.274.836.504a2.5 2.5 0 0 1 .572.892c.145.367.218.802.218 1.306v7.123h4.374l-2.77 3.756h-1.604v12.575H96.96V20.426z" fill="#191160"/><path d="M29.53 27.756h7.93v4.99h-8.504c-1.075 0-2.069-.103-2.983-.31-.914-.207-1.702-.492-2.362-.854-.66-.362-1.18-.792-1.557-1.289-.377-.498-.565-1.037-.565-1.618 0-.581.188-1.112.565-1.594.377-.481.896-.895 1.557-1.242.66-.346 1.448-.612 2.362-.8.914-.186 1.908-.28 2.983-.28h8.874l-2.482 2.077h-6.392c-.519 0-1 .048-1.446.144-.444.095-.83.23-1.157.405a2.418 2.418 0 0 0-.769.615 1.235 1.235 0 0 0-.278.782c0 .286.09.547.268.783a2.2 2.2 0 0 0 .76.602c.327.167.714.297 1.158.389.445.091.933.137 1.464.137h4.687v-1.159h-6.41zM57.247 32.746h-5.132l-2.761-2.113h-5.891v2.113h-3.835v-4.083H50.41c.592 0 1.093-.08 1.5-.239.408-.159.612-.378.612-.657 0-.31-.186-.543-.556-.698-.371-.155-.89-.233-1.556-.233H39.628l2.5-2.077h7.968c.704 0 1.432.042 2.186.125a9.42 9.42 0 0 1 2.056.448c.618.215 1.127.505 1.529.871.4.366.602.836.602 1.41 0 .31-.074.604-.222.883a2.423 2.423 0 0 1-.64.752 3.785 3.785 0 0 1-1.02.567 5.74 5.74 0 0 1-1.36.328c.209.104.444.235.704.394.259.16.605.378 1.037.657zM74.719 29.26c0 2.412-2.575 3.617-7.726 3.617-1.495 0-2.78-.075-3.854-.226-1.074-.152-1.961-.378-2.658-.681-.7-.302-1.211-.678-1.538-1.128-.328-.449-.491-.977-.491-1.582v-4.501h3.816v4.501c0 .295.062.541.186.74.123.199.355.361.695.484.339.124.818.211 1.435.262.618.052 1.42.078 2.409.078.74 0 1.359-.028 1.853-.084.494-.055.889-.147 1.186-.274.296-.127.509-.291.639-.489.13-.199.194-.439.194-.717v-4.501h3.854zM93.246 27.756c0 .445-.136.85-.408 1.211-.271.362-.67.671-1.195.926s-1.164.454-1.917.596c-.754.144-1.612.215-2.575.215h-6.485v2.042H76.85v-4.083h10.67c.594 0 1.054-.084 1.38-.251.328-.167.492-.389.492-.669 0-.278-.164-.499-.491-.662-.327-.163-.787-.245-1.38-.245H76.85l2.538-2.077h7.78c.965 0 1.823.073 2.577.221.752.147 1.389.352 1.908.615.518.263.914.577 1.185.942.272.366.408.773.408 1.219" fill="#7a0511"/><path d="M43.463 26.367v4.552h-3.835v-4.083zM80.666 26.438v4.481H76.85v-4.083z" fill="#7a0511"/></g></svg>